<?xml version="1.0" encoding="iso-8859-1"?>
<!-- Uploaded to: SVG Repo, www.svgrepo.com, Generator: SVG Repo Mixer Tools -->
<svg fill="#000000" height="800px" width="800px" version="1.1" id="Layer_1" xmlns="http://www.w3.org/2000/svg" xmlns:xlink="http://www.w3.org/1999/xlink" 
	 viewBox="0 0 512 512" xml:space="preserve">
<g>
	<g>
		<path d="M448,0H298.667C282.269,0,267.322,6.169,256,16.303C244.678,6.169,229.731,0,213.333,0H64C28.645,0,0,28.645,0,64v341.333
			c0,35.355,28.645,64,64,64h149.333c11.791,0,21.333,9.542,21.333,21.333c0,28.444,42.667,28.444,42.667,0
			c0-11.791,9.542-21.333,21.333-21.333H448c35.355,0,64-28.645,64-64V64C512,28.645,483.355,0,448,0z M213.333,426.667H64
			c-11.791,0-21.333-9.542-21.333-21.333V64c0-11.791,9.542-21.333,21.333-21.333h149.333c11.791,0,21.333,9.542,21.333,21.333
			v366.306C227.995,427.949,220.814,426.667,213.333,426.667z M469.333,405.333c0,11.791-9.542,21.333-21.333,21.333H298.667
			c-7.481,0-14.661,1.282-21.333,3.639V64c0-11.791,9.542-21.333,21.333-21.333H448c11.791,0,21.333,9.542,21.333,21.333V405.333z"
			/>
	</g>
</g>
</svg>